<svg width="181" height="134" viewBox="0 0 181 134" fill="none" xmlns="http://www.w3.org/2000/svg">
<path d="M118.399 -165.769C153.678 -190.815 202.558 -183.346 228.747 -148.908C236.761 -138.37 247.27 -129.977 259.332 -124.481C298.752 -106.52 316.743 -60.5824 299.948 -20.775C294.809 -8.59422 292.782 4.67042 294.049 17.8301C298.19 60.8367 267.302 99.3058 224.317 104.675C211.164 106.318 198.628 111.19 187.833 118.854C152.555 143.899 103.674 136.43 77.4849 101.992C69.4712 91.4545 58.9623 83.0616 46.9001 77.5657C7.48023 59.6049 -10.5111 13.6669 6.28421 -26.1406C11.4234 -38.3214 13.4503 -51.586 12.1831 -64.7456C8.04182 -107.752 38.9306 -146.221 81.9154 -151.591C95.0684 -153.234 107.604 -158.105 118.399 -165.769Z" fill="#DBB687"/>
</svg>
