<svg width="14" height="13" viewBox="0 0 14 13" fill="none" xmlns="http://www.w3.org/2000/svg">
<path opacity="0.7" fill-rule="evenodd" clip-rule="evenodd" d="M1.36667 0.533333C0.670667 0.849333 0 1.38933 0 2.16667V10.1667C0 10.9433 0.669333 11.4833 1.36667 11.8C2.10867 12.1373 3.09867 12.3333 4.16667 12.3333C4.87133 12.3333 5.54 12.2487 6.12667 12.0947C6.71351 12.5364 7.39958 12.8278 8.12498 12.9434C8.85037 13.059 9.59303 12.9953 10.2881 12.7578C10.9832 12.5203 11.6096 12.1162 12.1126 11.5809C12.6155 11.0456 12.9798 10.3953 13.1736 9.68677C13.3674 8.97826 13.3849 8.23307 13.2244 7.51627C13.0639 6.79948 12.7304 6.13287 12.2529 5.57464C11.7755 5.01642 11.1687 4.58355 10.4854 4.31383C9.80221 4.04412 9.06333 3.94576 8.33333 4.02733V2.16667C8.33333 1.39 7.66333 0.85 6.96667 0.533333C6.224 0.195333 5.23333 0 4.16667 0C3.1 0 2.10933 0.195333 1.36667 0.533333ZM1 2.16667C1 2.02333 1.15067 1.73 1.78067 1.44333C2.36667 1.17733 3.20867 1 4.16667 1C5.12467 1 5.96733 1.17733 6.55267 1.44333C7.18267 1.73 7.33333 2.02333 7.33333 2.16667C7.33333 2.31 7.18267 2.60333 6.55267 2.89C5.96733 3.156 5.12467 3.33333 4.16667 3.33333C3.20867 3.33333 2.366 3.156 1.78067 2.89C1.15067 2.60333 1 2.31 1 2.16667ZM1.78 4.89C1.15067 4.60333 1 4.31 1 4.16667V3.60933C1.11933 3.68 1.24267 3.744 1.36667 3.80067C2.10933 4.138 3.1 4.33333 4.16667 4.33333C5.23333 4.33333 6.224 4.138 6.96667 3.8C7.09067 3.744 7.214 3.68 7.33333 3.60933V4.256C6.78658 4.44952 6.28243 4.74698 5.84867 5.132C5.2985 5.26848 4.73351 5.33611 4.16667 5.33333C3.208 5.33333 2.36467 5.156 1.78 4.89ZM1 6.16667V5.60933C1.11867 5.68 1.242 5.744 1.36667 5.8C2.10867 6.13733 3.09867 6.33333 4.16667 6.33333C4.41933 6.33333 4.66667 6.322 4.90667 6.30067C4.72667 6.62067 4.58533 6.964 4.488 7.326C4.38133 7.33067 4.274 7.33333 4.16667 7.33333C3.208 7.33333 2.36467 7.156 1.78 6.89C1.15067 6.60333 1 6.31 1 6.16667ZM1 8.16667V7.60933C1.11867 7.68 1.242 7.744 1.36667 7.8C2.10867 8.13733 3.09867 8.33333 4.16667 8.33333L4.33667 8.33133C4.32459 8.66568 4.34918 9.00034 4.41 9.32933C4.32933 9.332 4.248 9.33333 4.16667 9.33333C3.208 9.33333 2.36467 9.156 1.78 8.89C1.15067 8.60333 1 8.31 1 8.16667ZM1 10.1667V9.60933C1.11867 9.68 1.242 9.74333 1.36667 9.8C2.10867 10.1373 3.09867 10.3333 4.16667 10.3333C4.35133 10.3333 4.53467 10.3273 4.71467 10.316C4.86267 10.6513 5.05067 10.9647 5.272 11.2507C4.928 11.304 4.556 11.3333 4.16667 11.3333C3.208 11.3333 2.36467 11.156 1.78 10.89C1.15067 10.6033 1 10.31 1 10.1667ZM5.33333 8.5C5.33333 7.57174 5.70208 6.6815 6.35846 6.02513C7.01484 5.36875 7.90508 5 8.83333 5C9.76159 5 10.6518 5.36875 11.3082 6.02513C11.9646 6.6815 12.3333 7.57174 12.3333 8.5C12.3333 9.42826 11.9646 10.3185 11.3082 10.9749C10.6518 11.6313 9.76159 12 8.83333 12C7.90508 12 7.01484 11.6313 6.35846 10.9749C5.70208 10.3185 5.33333 9.42826 5.33333 8.5Z" fill="#191711"/>
</svg>
