<svg width="14" height="14" viewBox="0 0 14 14" fill="none" xmlns="http://www.w3.org/2000/svg">
<path opacity="0.7" d="M2.16667 0.1862C3.36329 0.1862 4.33333 1.15625 4.33333 2.35287C4.33333 3.37729 3.62209 4.23447 2.66667 4.46029V10.0195C2.66667 10.4798 3.03976 10.8529 3.5 10.8529H5.6224L4.47917 9.70573L5.1875 9L6.94593 10.7643C7.27007 11.0895 7.27007 11.6162 6.94593 11.9414L5.1875 13.7057L4.47917 13L5.6224 11.8529H3.5C2.48748 11.8529 1.66667 11.0321 1.66667 10.0195V4.46029C0.71124 4.23447 0 3.37729 0 2.35287C0 1.15625 0.970047 0.1862 2.16667 0.1862ZM11.6667 9.1862C11.6667 10.1067 12.4128 10.8529 13.3333 10.8529V11.8529C12.4128 11.8529 11.6667 12.599 11.6667 13.5195H10.6667C10.6667 12.599 9.92053 11.8529 9 11.8529V10.8529C9.92053 10.8529 10.6667 10.1067 10.6667 9.1862H11.6667ZM11.1667 10.7396C10.9969 10.9759 10.7897 11.1831 10.5534 11.3529C10.7896 11.5225 10.997 11.7293 11.1667 11.9655C11.3363 11.7295 11.5433 11.5225 11.7793 11.3529C11.5431 11.1832 11.3363 10.9758 11.1667 10.7396ZM8.85413 0.705733L7.71093 1.85287H9.83333C10.8459 1.85287 11.6667 2.67368 11.6667 3.6862V8.1862H10.6667V3.6862C10.6667 3.22596 10.2936 2.85287 9.83333 2.85287H7.71093L8.85413 4L8.14587 4.70573L6.38673 2.94141C6.06273 2.61622 6.06273 2.08951 6.38673 1.76433L8.14587 0L8.85413 0.705733ZM2.16667 1.1862C1.52233 1.1862 1 1.70853 1 2.35287C1 2.9972 1.52233 3.51953 2.16667 3.51953C2.811 3.51953 3.33333 2.9972 3.33333 2.35287C3.33333 1.70853 2.811 1.1862 2.16667 1.1862Z" fill="#191711"/>
</svg>
