<svg width="14" height="13" viewBox="0 0 14 13" fill="none" xmlns="http://www.w3.org/2000/svg">
<path opacity="0.7" d="M11.5 6.66667C11.04 6.66667 10.6233 6.83667 10.3 7.11667L9.13 6.35C9.27207 6.00854 9.34103 5.6411 9.33241 5.27137C9.3238 4.90163 9.23782 4.53781 9.08 4.20333L10.3667 3.27C10.68 3.51667 11.0733 3.66667 11.5 3.66667C11.986 3.66579 12.4518 3.47235 12.7954 3.12872C13.139 2.7851 13.3325 2.31929 13.3333 1.83333C13.3325 1.34737 13.139 0.88157 12.7954 0.537944C12.4518 0.194318 11.986 0.000881162 11.5 0C11.014 0.000881162 10.5482 0.194318 10.2046 0.537944C9.86098 0.88157 9.66755 1.34737 9.66667 1.83333C9.66667 2.05333 9.70667 2.26667 9.78 2.46L8.49333 3.39333C7.99953 2.92685 7.34597 2.66695 6.66667 2.66695C5.98736 2.66695 5.3338 2.92685 4.84 3.39333L3.55333 2.46C3.62667 2.26333 3.66667 2.05333 3.66667 1.83333C3.66579 1.34737 3.47235 0.88157 3.12872 0.537944C2.7851 0.194318 2.31929 0.000881162 1.83333 0C1.34737 0.000881162 0.88157 0.194318 0.537944 0.537944C0.194318 0.88157 0.000881162 1.34737 0 1.83333C0.000881162 2.31929 0.194318 2.7851 0.537944 3.12872C0.88157 3.47235 1.34737 3.66579 1.83333 3.66667C2.26 3.66667 2.65333 3.51667 2.96667 3.27L4.25333 4.20333C4.09552 4.53781 4.00953 4.90163 4.00092 5.27137C3.99231 5.6411 4.06126 6.00854 4.20333 6.35L3.03333 7.11667C2.701 6.82635 2.27462 6.66645 1.83333 6.66667C1.34737 6.66755 0.88157 6.86098 0.537944 7.20461C0.194318 7.54824 0.000881162 8.01404 0 8.5C0.000881162 8.98596 0.194318 9.45176 0.537944 9.79539C0.88157 10.139 1.34737 10.3325 1.83333 10.3333C2.12065 10.3326 2.4038 10.2645 2.66002 10.1345C2.91624 10.0045 3.13838 9.81618 3.30859 9.5847C3.47879 9.35322 3.59232 9.08503 3.64003 8.8017C3.68775 8.51837 3.66833 8.22779 3.58333 7.95333L4.75333 7.18667C5.12667 7.57333 5.61667 7.84667 6.16667 7.95333V9.40667C5.4 9.62667 4.83333 10.33 4.83333 11.17C4.83421 11.656 5.02765 12.1218 5.37128 12.4654C5.7149 12.809 6.18071 13.0025 6.66667 13.0033C7.15263 13.0025 7.61843 12.809 7.96206 12.4654C8.30568 12.1218 8.49912 11.656 8.5 11.17C8.5 10.3333 7.93333 9.62667 7.16667 9.40667V7.95333C7.70585 7.85044 8.19974 7.58253 8.58 7.18667L9.75 7.95333C9.665 8.22779 9.64558 8.51837 9.6933 8.8017C9.74102 9.08503 9.85454 9.35322 10.0247 9.5847C10.195 9.81618 10.4171 10.0045 10.6733 10.1345C10.9295 10.2645 11.2127 10.3326 11.5 10.3333C11.986 10.3325 12.4518 10.139 12.7954 9.79539C13.139 9.45176 13.3325 8.98596 13.3333 8.5C13.3325 8.01404 13.139 7.54824 12.7954 7.20461C12.4518 6.86098 11.986 6.66755 11.5 6.66667ZM1.83333 9.33333C1.61232 9.33333 1.40036 9.24554 1.24408 9.08926C1.0878 8.93298 1 8.72101 1 8.5C1 8.27899 1.0878 8.06702 1.24408 7.91074C1.40036 7.75446 1.61232 7.66667 1.83333 7.66667C2.05435 7.66667 2.26631 7.75446 2.42259 7.91074C2.57887 8.06702 2.66667 8.27899 2.66667 8.5C2.66667 8.72101 2.57887 8.93298 2.42259 9.08926C2.26631 9.24554 2.05435 9.33333 1.83333 9.33333ZM11.5 1C11.721 1 11.933 1.0878 12.0893 1.24408C12.2455 1.40036 12.3333 1.61232 12.3333 1.83333C12.3333 2.05435 12.2455 2.26631 12.0893 2.42259C11.933 2.57887 11.721 2.66667 11.5 2.66667C11.279 2.66667 11.067 2.57887 10.9107 2.42259C10.7545 2.26631 10.6667 2.05435 10.6667 1.83333C10.6667 1.61232 10.7545 1.40036 10.9107 1.24408C11.067 1.0878 11.279 1 11.5 1ZM1.83333 2.66667C1.61232 2.66667 1.40036 2.57887 1.24408 2.42259C1.0878 2.26631 1 2.05435 1 1.83333C1 1.61232 1.0878 1.40036 1.24408 1.24408C1.40036 1.0878 1.61232 1 1.83333 1C2.05435 1 2.26631 1.0878 2.42259 1.24408C2.57887 1.40036 2.66667 1.61232 2.66667 1.83333C2.66667 2.05435 2.57887 2.26631 2.42259 2.42259C2.26631 2.57887 2.05435 2.66667 1.83333 2.66667ZM7.5 11.1667C7.5 11.3877 7.4122 11.5996 7.25592 11.7559C7.09964 11.9122 6.88768 12 6.66667 12C6.44565 12 6.23369 11.9122 6.07741 11.7559C5.92113 11.5996 5.83333 11.3877 5.83333 11.1667C5.83333 10.9457 5.92113 10.7337 6.07741 10.5774C6.23369 10.4211 6.44565 10.3333 6.66667 10.3333C6.88768 10.3333 7.09964 10.4211 7.25592 10.5774C7.4122 10.7337 7.5 10.9457 7.5 11.1667ZM6.66667 7C6.22464 7 5.80072 6.8244 5.48815 6.51184C5.17559 6.19928 5 5.77536 5 5.33333C5 4.89131 5.17559 4.46738 5.48815 4.15482C5.80072 3.84226 6.22464 3.66667 6.66667 3.66667C7.10869 3.66667 7.53262 3.84226 7.84518 4.15482C8.15774 4.46738 8.33333 4.89131 8.33333 5.33333C8.33333 5.77536 8.15774 6.19928 7.84518 6.51184C7.53262 6.8244 7.10869 7 6.66667 7ZM11.5 9.33333C11.279 9.33333 11.067 9.24554 10.9107 9.08926C10.7545 8.93298 10.6667 8.72101 10.6667 8.5C10.6667 8.27899 10.7545 8.06702 10.9107 7.91074C11.067 7.75446 11.279 7.66667 11.5 7.66667C11.721 7.66667 11.933 7.75446 12.0893 7.91074C12.2455 8.06702 12.3333 8.27899 12.3333 8.5C12.3333 8.72101 12.2455 8.93298 12.0893 9.08926C11.933 9.24554 11.721 9.33333 11.5 9.33333Z" fill="#191711"/>
</svg>
