<svg width="121" height="128" viewBox="0 0 121 128" fill="none" xmlns="http://www.w3.org/2000/svg">
<path d="M90.6413 -10.8522C121.142 -24.0991 152.099 6.85786 138.852 37.3587L136.662 42.4016C132.618 51.7137 132.618 62.2863 136.662 71.5984L138.852 76.6413C152.099 107.142 121.142 138.099 90.6413 124.852L85.5984 122.662C76.2863 118.618 65.7137 118.618 56.4016 122.662L51.3587 124.852C20.8578 138.099 -10.0991 107.142 3.14782 76.6413L5.33806 71.5984C9.38243 62.2863 9.38241 51.7137 5.33804 42.4016L3.14782 37.3587C-10.0991 6.85783 20.8579 -24.0991 51.3587 -10.8522L56.4016 -8.66195C65.7137 -4.61758 76.2863 -4.61759 85.5984 -8.66196L90.6413 -10.8522Z" fill="#A5ACC0"/>
</svg>
