<svg width="14" height="14" viewBox="0 0 14 14" fill="none" xmlns="http://www.w3.org/2000/svg">
<path opacity="0.7" fill-rule="evenodd" clip-rule="evenodd" d="M7.16667 7.01H13.3433L13.33 6.49667C13.2853 4.79127 12.5879 3.16803 11.3816 1.96172C10.1753 0.755405 8.55207 0.0580024 6.84667 0.0133334L6.33333 0V6.17667C6.33333 6.63667 6.70667 7.01 7.16667 7.01ZM12.2933 6.01H7.33333V1.05C8.59722 1.19903 9.77404 1.76951 10.6739 2.6694C11.5738 3.5693 12.1443 4.74612 12.2933 6.01ZM1 6.67667C1 9.8 3.54333 12.3433 6.66667 12.3433C9.31 12.3433 11.5633 10.4867 12.17 8.01H13.1933C12.5667 11.04 9.86 13.3433 6.66667 13.3433C2.99 13.3433 0 10.3533 0 6.67667C0 3.45667 2.29333 0.763333 5.33333 0.143333V1.17333C2.85 1.77667 1 4.01333 1 6.67667Z" fill="#191711"/>
</svg>
