<svg width="364" height="457" viewBox="0 0 364 457" fill="none" xmlns="http://www.w3.org/2000/svg">
<path fill-rule="evenodd" clip-rule="evenodd" d="M347.243 319.805C347.243 319.816 347.239 319.827 347.23 319.835C300.305 364.404 246.231 397.497 195.584 438.372C156.576 475.835 99.5383 448.897 116.776 402.564C120.624 392.221 128.717 384.186 135.239 375.284C152.508 351.713 145.78 335.748 105.682 337.286C53.5863 342.974 -10.342 320.758 1.41345 264.044C3.92603 251.922 10.6476 241.169 18.1137 231.294C68.8235 164.224 134.676 108.77 190.41 45.1468C244.673 -29.2992 362.494 -8.38362 359.168 83.6892C358.734 95.7213 357.782 108.295 351.803 118.746C336.744 145.07 292.666 176.424 260.18 200.793C230.44 223.102 243.147 229.147 279.637 222.033C280.927 221.782 282.218 221.564 283.508 221.385C346.744 209.744 387.64 268.469 347.253 319.778C347.247 319.786 347.243 319.795 347.243 319.805Z" fill="#D1DDD9"/>
</svg>
