<svg width="157" height="163" viewBox="0 0 157 163" fill="none" xmlns="http://www.w3.org/2000/svg">
<g filter="url(#filter0_d_1065_32773)">
<path d="M54.4143 28.7927C61.1809 23.9018 64.5642 21.4563 68.1703 20.2406C73.386 18.4823 79.0387 18.4823 84.2544 20.2406C87.8604 21.4563 91.2438 23.9018 98.0104 28.7928L113.226 39.7909C117.245 42.6953 119.254 44.1476 120.892 45.891C123.259 48.4105 125.074 51.3913 126.224 54.6448C127.02 56.896 127.384 59.34 128.112 64.228L130.93 83.1313C132.208 91.7064 132.847 95.9939 132.202 99.8583C131.269 105.448 128.449 110.555 124.208 114.337C121.276 116.952 117.297 118.716 109.337 122.244L91.304 130.236C86.5008 132.365 84.0993 133.429 81.6301 133.973C78.0615 134.759 74.3632 134.759 70.7945 133.973C68.3254 133.429 65.9239 132.365 61.1207 130.236L43.0876 122.244C35.1281 118.716 31.1484 116.952 28.2164 114.337C23.9753 110.555 21.156 105.448 20.2231 99.8583C19.5781 95.9939 20.2171 91.7064 21.4951 83.1313L24.3123 64.228C25.0408 59.34 25.405 56.896 26.2005 54.6448C27.3502 51.3913 29.166 48.4105 31.533 45.891C33.1708 44.1476 35.18 42.6953 39.1984 39.7908L54.4143 28.7927Z" fill="#B1EEDC"/>
</g>
<defs>
<filter id="filter0_d_1065_32773" x="-4.03125" y="-1.07812" width="160.488" height="163.641" filterUnits="userSpaceOnUse" color-interpolation-filters="sRGB">
<feFlood flood-opacity="0" result="BackgroundImageFix"/>
<feColorMatrix in="SourceAlpha" type="matrix" values="0 0 0 0 0 0 0 0 0 0 0 0 0 0 0 0 0 0 127 0" result="hardAlpha"/>
<feOffset dy="4"/>
<feGaussianBlur stdDeviation="12"/>
<feComposite in2="hardAlpha" operator="out"/>
<feColorMatrix type="matrix" values="0 0 0 0 0 0 0 0 0 0 0 0 0 0 0 0 0 0 0.04 0"/>
<feBlend mode="normal" in2="BackgroundImageFix" result="effect1_dropShadow_1065_32773"/>
<feBlend mode="normal" in="SourceGraphic" in2="effect1_dropShadow_1065_32773" result="shape"/>
</filter>
</defs>
</svg>
