<svg width="34" height="34" viewBox="0 0 34 34" fill="none" xmlns="http://www.w3.org/2000/svg">
<mask id="mask0_1065_32775" style="mask-type:alpha" maskUnits="userSpaceOnUse" x="0" y="0" width="34" height="34">
<rect width="33.641" height="33.641" fill="#D9D9D9"/>
</mask>
<g mask="url(#mask0_1065_32775)">
<path d="M22.6401 17.8869L7.01108 17.8869C6.61393 17.8869 6.28103 17.7526 6.01237 17.4839C5.74371 17.2153 5.60938 16.8824 5.60938 16.4852C5.60938 16.0881 5.74371 15.7552 6.01237 15.4865C6.28103 15.2178 6.61393 15.0835 7.01108 15.0835L22.6401 15.0835L18.6453 11.0886C18.3649 10.8083 18.2306 10.4812 18.2423 10.1074C18.254 9.73364 18.3883 9.40658 18.6453 9.12624C18.9256 8.84589 19.2585 8.69988 19.644 8.6882C20.0295 8.67652 20.3624 8.81085 20.6427 9.09119L27.0555 15.504C27.1957 15.6442 27.295 15.796 27.3534 15.9596C27.4118 16.1231 27.441 16.2983 27.441 16.4852C27.441 16.6721 27.4118 16.8473 27.3534 17.0109C27.295 17.1744 27.1957 17.3262 27.0555 17.4664L20.6427 23.8792C20.3624 24.1596 20.0295 24.2939 19.644 24.2822C19.2585 24.2705 18.9256 24.1245 18.6453 23.8442C18.3883 23.5638 18.254 23.2368 18.2423 22.863C18.2306 22.4892 18.3649 22.1621 18.6453 21.8818L22.6401 17.8869Z" fill="#397362"/>
</g>
</svg>
