<svg width="16" height="16" viewBox="0 0 16 16" fill="none" xmlns="http://www.w3.org/2000/svg">
<path fill-rule="evenodd" clip-rule="evenodd" d="M7.36521 14.2248C7.52521 14.4148 7.75854 14.5248 8.00521 14.5248C8.25188 14.5248 8.48521 14.4148 8.64521 14.2248L12.1019 10.0748C12.8995 9.11602 13.3369 7.90863 13.3385 6.66146C13.3385 3.72146 10.9452 1.32812 8.00521 1.32812C5.06521 1.32812 2.67188 3.72146 2.67188 6.66146C2.67188 7.90813 3.11187 9.11812 3.90854 10.0748L7.36521 14.2248ZM3.67188 6.66146C3.67188 4.27146 5.61521 2.32812 8.00521 2.32812C10.3952 2.32812 12.3385 4.27146 12.3385 6.66146C12.3381 7.67468 11.9831 8.65581 11.3352 9.43479L8.00521 13.4315L4.67521 9.43479C4.02778 8.65553 3.67289 7.67458 3.67188 6.66146ZM5.67188 6.66146C5.67188 7.94813 6.71854 8.99479 8.00521 8.99479C9.29188 8.99479 10.3385 7.94813 10.3385 6.66146C10.3385 5.37479 9.29188 4.32812 8.00521 4.32812C6.71854 4.32812 5.67188 5.37479 5.67188 6.66146ZM6.67188 6.66146C6.66786 6.4839 6.69936 6.30733 6.76452 6.14211C6.82969 5.97689 6.9272 5.82636 7.05134 5.69934C7.17549 5.57233 7.32375 5.4714 7.48744 5.40248C7.65112 5.33355 7.82693 5.29803 8.00453 5.29798C8.18214 5.29794 8.35796 5.33338 8.52168 5.40222C8.6854 5.47106 8.83372 5.57192 8.95792 5.69887C9.08213 5.82582 9.17972 5.9763 9.24497 6.14149C9.31021 6.30667 9.3418 6.48323 9.33787 6.66079C9.33017 7.00917 9.18639 7.34068 8.93732 7.58437C8.68824 7.82806 8.35366 7.96456 8.0052 7.96465C7.65674 7.96474 7.32209 7.8284 7.0729 7.58484C6.8237 7.34127 6.67975 7.00983 6.67188 6.66146Z" fill="#191711" fill-opacity="0.7"/>
</svg>
