<svg width="23" height="28" viewBox="0 0 23 28" fill="none" xmlns="http://www.w3.org/2000/svg">
<path fill-rule="evenodd" clip-rule="evenodd" d="M21.1583 19.6364C21.1583 19.6371 21.158 19.6378 21.1575 19.6383C18.2983 22.3749 15.0034 24.4068 11.9174 26.9167C9.42407 29.3297 5.72185 27.3913 7.30312 24.2915C7.46892 23.9665 7.71534 23.6876 7.95132 23.4093C9.34634 21.7642 9.08374 20.6076 6.43946 20.7098C3.11477 21.0756 -1.00082 19.5619 0.219528 15.7035C0.342661 15.3142 0.551469 14.9555 0.791311 14.625C3.91957 10.3149 8.09045 6.81165 11.6021 2.77208C15.0069 -1.93508 22.5184 -0.433116 21.8469 5.65509C21.8035 6.04843 21.7844 6.45343 21.6524 6.8265C20.9216 8.89167 16.6169 11.6342 14.6044 13.3054C13.6504 14.0975 14.3826 14.5599 15.5379 14.1094C16.1107 13.8861 16.6925 13.6747 17.2748 13.5934C21.1279 12.8786 23.6198 16.4844 21.1589 19.6348C21.1585 19.6353 21.1583 19.6358 21.1583 19.6364Z" fill="white"/>
</svg>
