<svg width="13" height="16" viewBox="0 0 13 16" fill="none" xmlns="http://www.w3.org/2000/svg">
<g clip-path="url(#clip0_2020_13892)">
<g clip-path="url(#clip1_2020_13892)">
<path fill-rule="evenodd" clip-rule="evenodd" d="M12.0905 11.2208C12.0905 11.2212 12.0903 11.2216 12.09 11.2219C10.4562 12.7856 8.57339 13.9468 6.80993 15.3809C5.38518 16.7598 3.26963 15.6522 4.17321 13.8808C4.26795 13.6951 4.40877 13.5358 4.54361 13.3767C5.34076 12.4367 5.19071 11.7758 3.67969 11.8342C1.77987 12.0432 -0.571899 11.1782 0.125445 8.97342C0.195807 8.75096 0.315125 8.54599 0.452178 8.35716C2.23976 5.89423 4.62311 3.89237 6.62978 1.58404C8.57538 -1.10576 12.8677 -0.247495 12.484 3.23148C12.4592 3.45625 12.4482 3.68768 12.3728 3.90086C11.9552 5.08095 9.49539 6.64813 8.34535 7.60307C7.8002 8.05573 8.2186 8.31995 8.87878 8.06254C9.20609 7.93492 9.53857 7.81414 9.87132 7.76763C12.0731 7.35918 13.497 9.41964 12.0908 11.2199C12.0906 11.2202 12.0905 11.2205 12.0905 11.2208Z" fill="#191711"/>
</g>
</g>
<defs>
<clipPath id="clip0_2020_13892">
<rect width="12.6518" height="16" fill="white"/>
</clipPath>
<clipPath id="clip1_2020_13892">
<rect width="12.6518" height="16" fill="white"/>
</clipPath>
</defs>
</svg>
