<svg width="14" height="13" viewBox="0 0 14 13" fill="none" xmlns="http://www.w3.org/2000/svg">
<path d="M3.10576 12.97C2.93242 12.97 2.76242 12.9167 2.61576 12.81C2.35576 12.6233 2.22909 12.31 2.28242 11.9933L2.90909 8.33333L0.252422 5.74333C0.140261 5.63554 0.060988 5.49814 0.0238147 5.34709C-0.0133585 5.19603 -0.00690619 5.03753 0.0424221 4.89C0.142422 4.58667 0.399089 4.37 0.715755 4.32333L4.38909 3.79L6.03242 0.463333C6.17242 0.176667 6.45909 0 6.77909 0C7.09909 0 7.38576 0.176667 7.52576 0.463333L9.16909 3.79L12.8424 4.32333C12.9966 4.34495 13.1415 4.40941 13.2608 4.50937C13.3801 4.60932 13.469 4.74076 13.5173 4.88873C13.5655 5.0367 13.5713 5.19524 13.5339 5.34633C13.4965 5.49741 13.4175 5.63497 13.3058 5.74333L10.6491 8.33333L11.2758 11.99C11.3025 12.1435 11.2857 12.3014 11.2272 12.4458C11.1687 12.5902 11.0709 12.7154 10.9449 12.807C10.8189 12.8986 10.6698 12.9531 10.5144 12.9643C10.359 12.9754 10.2035 12.9427 10.0658 12.87L6.77909 11.1433L3.49242 12.87C3.37195 12.9328 3.23826 12.9659 3.10242 12.9667L3.10576 12.97Z" fill="#CD944E"/>
</svg>
